<svg width="46" height="22" viewBox="0 0 46 22" fill="none" xmlns="http://www.w3.org/2000/svg">
<path d="M30.2274 21.9763C32.6753 21.9763 34.693 21.9419 35.9459 21.8556C45.5638 21.1956 45.7256 19.3708 45.78 18.7721C45.7925 18.6321 45.8145 18.4609 45.8388 18.2689C46.0815 16.9438 46.0498 15.5725 45.7461 14.2639H45.7417C45.3476 13.0655 43.1027 8.18159 32.7267 8.18159C31.5274 8.13547 22.1221 3.17441 19.0308 1.54504C17.4867 0.730773 17.1455 0.552169 17.022 0.506047L16.9212 0.464102C16.6355 0.305205 16.3216 0.223113 16.0037 0.22413C15.6858 0.225148 15.3723 0.309264 15.0874 0.469988C14.7534 0.741287 14.4773 1.09491 14.2796 1.5046C14.0819 1.9143 13.9677 2.36952 13.9454 2.83646C13.7399 4.27708 13.0848 5.58447 12.1009 6.51784C11.1169 7.4512 9.87041 7.94766 8.5909 7.91577H8.58502C5.96437 7.91577 3.95623 4.47003 3.93638 4.43481C3.80993 4.21565 3.63652 4.03692 3.43257 3.91556C3.22862 3.7942 3.00088 3.73423 2.77092 3.74131C2.5056 3.78486 2.25609 3.91155 2.05019 4.10729C1.84428 4.30303 1.69007 4.56011 1.60472 4.84991C0.869411 6.60506 -0.196056 14.2697 0.0311546 16.1004C0.222336 21.2073 1.12823 21.3264 1.56427 21.3835C1.59207 21.3875 1.62007 21.3894 1.6481 21.3893C1.90325 21.3893 3.10769 21.4237 4.92905 21.4732C10.7858 21.6409 22.5971 21.9763 30.2274 21.9763Z" fill="#ACACA1"/>
<path d="M8.79484 17.5771C8.65683 14.4817 3.79199 11.4999 1.37682 10.396L0.686768 13.3799L1.37682 17.118L8.79484 17.5771Z" fill="#E8E8E4"/>
<path d="M5.3047 7.17467L2.74897 4.8205L1.3728 7.95939V10.5378L2.06089 10.762L5.79619 13.2282L8.35193 15.6945L8.84341 17.6003L17.1987 17.9366L25.6523 18.2729H30.5672L35.3837 17.9366V15.3582L35.1871 12.1072L34.5974 9.08043H32.7297L30.5672 8.1836L19.0664 2.57844L15.9208 1.12109L15.1345 1.79371L13.3651 6.27784L11.2026 8.1836L7.56555 8.74412L5.3047 7.17467Z" fill="black"/>
<path d="M35.0168 17.8395C35.7758 16.764 35.0647 11.6859 34.6143 9.28125H37.0294L43.3261 11.6421L45.1087 14.4293L43.9874 15.6753L39.5596 17.0197L35.0168 17.8395Z" fill="#E8E8E4"/>
<path d="M30.2274 21.7522C32.6753 21.7522 34.693 21.7178 35.9459 21.6314C45.5638 20.9715 45.7256 19.1467 45.78 18.548C45.7925 18.4079 45.8145 18.2368 45.8388 18.0448C46.0815 16.7197 46.0498 15.3484 45.7461 14.0397H45.7417C45.3476 12.8414 43.1027 7.95747 32.7267 7.95747C31.5274 7.91135 22.1221 2.95029 19.0308 1.32092C17.4867 0.506652 17.1455 0.328048 17.022 0.281926L16.9212 0.239981C16.6355 0.0810836 16.3216 -0.00100825 16.0037 9.34598e-06C15.6858 0.00102694 15.3723 0.0851429 15.0874 0.245867C14.7534 0.517166 14.4773 0.87079 14.2796 1.28048C14.0819 1.69018 13.9677 2.1454 13.9454 2.61234C13.7399 4.05296 13.0848 5.36035 12.1009 6.29371C11.1169 7.22707 9.87041 7.72354 8.5909 7.69165H8.58502C5.96437 7.69165 3.95624 4.24591 3.93639 4.21069C3.80993 3.99153 3.63653 3.8128 3.43258 3.69144C3.22863 3.57008 3.00089 3.51011 2.77092 3.51718C2.5056 3.56074 2.25609 3.68743 2.05019 3.88317C1.84428 4.07891 1.69007 4.33599 1.60472 4.62578C0.869411 6.38094 -0.196053 14.0456 0.0311584 15.8762C0.22234 20.9832 1.12823 21.1023 1.56427 21.1593C1.59208 21.1634 1.62008 21.1653 1.6481 21.1652C1.90325 21.1652 3.1077 21.1996 4.92906 21.2491C10.7858 21.4168 22.5971 21.7522 30.2274 21.7522ZM44.3307 18.2427C43.9432 18.6226 41.838 19.5475 35.8577 19.9576C30.7612 20.3073 12.6829 19.7899 4.96288 19.5727C3.52461 19.5316 2.4665 19.5023 1.94811 19.4889C1.66677 18.2695 1.5147 17.0161 1.49516 15.7555C1.49367 15.7195 1.49023 15.6836 1.48486 15.6481C1.29368 14.3903 2.22018 7.21786 2.89152 5.4367C3.518 6.40024 5.67246 9.36295 8.58061 9.36462H8.58796C10.2166 9.40172 11.8022 8.7664 13.0526 7.5757C14.303 6.38499 15.134 4.71911 15.3925 2.88489C15.5337 1.92555 15.7712 1.72513 15.8175 1.69494C15.9455 1.61108 16.2293 1.73266 16.3999 1.80562C16.4602 1.83162 16.5139 1.85427 16.5602 1.87188C16.6646 1.91884 17.4734 2.34485 18.4095 2.83878C27.6744 7.72605 31.6907 9.63129 32.7231 9.63129C42.9961 9.63129 44.3748 14.6435 44.3858 14.6947C44.5683 15.7206 44.5665 16.7781 44.3807 17.8033C44.363 17.9677 44.3446 18.1152 44.3307 18.2452V18.2427Z" fill="black"/>
<path d="M34.7298 18.0491C34.8524 18.0471 34.973 18.013 35.0824 17.9497C35.1917 17.8863 35.2869 17.7953 35.3606 17.6835C36.321 16.3158 35.3033 10.4398 35.0893 9.27588L34.3702 9.44358C34.8717 12.1774 35.3327 16.3778 34.7871 17.1585C34.7518 17.2089 34.7334 17.2097 34.7195 17.2097L34.7298 18.0491Z" fill="black"/>
<path d="M9.23218 17.4751C9.23218 13.4248 1.56435 9.82302 1.23787 9.67627L0.960664 10.4519C3.05777 11.4255 8.49907 14.5828 8.49687 17.4784L9.23218 17.4751Z" fill="black"/>
<path d="M25.9134 18.3977C44.2579 18.3977 45.3528 14.822 45.4175 14.3826L44.6991 14.2148C44.6873 14.2543 43.2726 18.1629 20.9081 17.4853C3.13346 16.9436 0.923107 16.5344 0.66869 16.4229L0.609863 16.5973L0.587803 16.2853C0.13044 16.3541 0.110596 16.6887 0.115005 16.7885C0.138535 17.3126 0.155441 17.6908 20.8883 18.3231C22.6888 18.3728 24.3638 18.3977 25.9134 18.3977Z" fill="black"/>
<path d="M19.75 8.25C19.75 8.05109 19.829 7.86032 19.9697 7.71967C20.1103 7.57902 20.3011 7.5 20.5 7.5C20.6989 7.5 20.8897 7.57902 21.0303 7.71967C21.171 7.86032 21.25 8.05109 21.25 8.25C21.25 8.44891 21.171 8.63968 21.0303 8.78033C20.8897 8.92098 20.6989 9 20.5 9C20.3011 9 20.1103 8.92098 19.9697 8.78033C19.829 8.63968 19.75 8.44891 19.75 8.25ZM19 10.5C19 10.2234 19.2234 10 19.5 10H20.5C20.7766 10 21 10.2234 21 10.5V14H21.5C21.7766 14 22 14.2234 22 14.5C22 14.7766 21.7766 15 21.5 15H19.5C19.2234 15 19 14.7766 19 14.5C19 14.2234 19.2234 14 19.5 14H20V11H19.5C19.2234 11 19 10.7766 19 10.5Z" fill="#F3F3EF" stroke="#F3F3EF" stroke-width="0.25"/>
</svg>
