<svg width="300" height="400" viewBox="0 0 300 400" fill="none" xmlns="http://www.w3.org/2000/svg">
<path d="M133.445 213.731C113.577 181.596 111.345 125.188 112.713 101H30L45.3332 172.267C50.1707 192.654 50.0843 206.965 49.4364 211.572C47.7088 220.037 48.7166 232.808 49.4364 238.135C49.2637 251.438 45.6211 259.947 43.8215 262.538C38.4657 274.978 41.5899 286.438 43.8215 290.613C48.659 305.126 88.7412 299.54 108.178 294.932C121.135 291.304 137.476 292.989 144.027 294.285C161.304 297.394 190.531 298.46 202.984 298.604C208.513 299.122 210.615 297.956 210.975 297.308C212.011 295.926 213.134 295.724 213.566 295.796C229.979 298.215 236.674 296.804 237.97 295.796C244.708 297.697 249.128 296.876 250.496 296.228C253.778 295.537 258.342 295.94 260.214 296.228C264.188 296.747 265.181 295.148 265.181 294.285C272.264 291.175 270.004 284.926 267.988 282.191C269.025 273.207 260.646 272.977 256.327 273.984C253.044 275.021 249.92 274.416 248.768 273.984C243.239 272.084 233.219 269.737 228.9 268.801C167.889 251.352 139.842 224.817 133.445 213.731Z" fill="#FCFCF8"/>
<path d="M144.027 294.284C151.888 295.699 167.246 296.791 177.349 297.465C195.21 283.512 197.759 265.551 196.326 257.507C179.595 250.554 166.542 243.097 156.698 236.153C156.884 249.03 150.335 278.392 122.651 292.823C131.494 292.45 139.799 293.448 144.027 294.284Z" fill="#E8E8E4"/>
<path d="M176.791 251.698C174.558 260.628 171.767 276.591 156.139 293.558" stroke="#1E1E19" stroke-width="4" stroke-linecap="round" stroke-linejoin="round" stroke-dasharray="4 8"/>
<path d="M112.713 101C111.345 125.188 113.577 181.596 133.445 213.731C139.842 224.817 167.889 251.352 228.9 268.801C233.219 269.737 243.239 272.084 248.768 273.984C249.92 274.416 253.044 275.021 256.327 273.984C260.646 272.977 269.025 273.207 267.988 282.191C270.004 284.926 272.264 291.175 265.181 294.285C265.181 295.148 264.188 296.747 260.214 296.228C258.342 295.94 253.778 295.537 250.496 296.228C249.128 296.876 244.708 297.697 237.97 295.796C236.674 296.804 229.979 298.215 213.566 295.796C213.134 295.724 212.011 295.926 210.975 297.308C210.615 297.956 208.513 299.122 202.984 298.604C190.531 298.46 161.304 297.394 144.027 294.285C137.476 292.989 121.135 291.304 108.178 294.932C88.7412 299.54 48.659 305.126 43.8215 290.613C41.5899 286.438 38.4657 274.978 43.8215 262.538C45.6211 259.947 49.2637 251.438 49.4364 238.135C48.7166 232.808 47.7088 220.037 49.4364 211.572C50.0843 206.965 50.1707 192.654 45.3332 172.267L30 101" stroke="#1E1E19" stroke-width="3" stroke-linecap="round"/>
<path d="M214.862 277.224C225.3 278.591 244.535 284.221 237.97 295.796M225.66 275.928L244.232 282.839C248.12 283.919 254.728 288.151 250.063 296.444M233.65 275.928L259.35 284.35C261.509 284.854 265.094 287.633 264.749 294.717M237.97 274.416L267.556 281.975" stroke="#1E1E19" stroke-width="2" stroke-linecap="round"/>
<path d="M68.0091 213.947C67.8651 224.601 71.8532 247.594 88.9573 254.332" stroke="#1E1E19" stroke-width="2" stroke-linecap="round"/>
</svg>
