<svg width="300" height="400" viewBox="0 0 300 400" fill="none" xmlns="http://www.w3.org/2000/svg">
<path d="M173.41 60.0648C168.591 46.4616 163.001 17.8027 179.193 11.9925C187.868 8.18821 206.759 7.21984 212.928 33.7807C214.32 40.2364 216.269 55.638 212.928 65.5983C211.643 67.7887 208.816 75.0878 212.928 82.2814C216.389 94.3859 221.851 109.257 214.213 144.879C210.135 163.901 195.956 230.994 204.18 315.38C204.18 348.581 190.365 390 143.852 390C127.467 389.654 95.3381 374.45 97.9084 328.522V287.367C96.7303 259.815 92.3823 212.029 84.4145 168.314C79.0753 144.731 82.1898 127.592 84.4145 121.971C87.1989 118.051 85.7551 107.03 83.6989 97.0701C81.1287 90.2685 78.1086 75.4894 86.5905 70.786C89.6558 69.0792 98.0712 66.577 101.008 73.6948C98.8453 68.1623 95.7905 56.8391 100.084 53.5763C102.655 51.386 108.502 47.2128 111.329 48.0428C113.364 48.707 116.791 51.1554 118.398 56.2605L120.647 63.6058C121.182 65.2198 122.703 68.3093 124.502 67.756C125.274 67.7009 126.434 66.5698 124.896 62.4857L120.077 49.6895C117.935 45.5394 115.9 36.5474 124.896 33.7807C128.537 32.1667 139.217 30.3356 141.53 41.126C139.817 32.5951 138.06 15.7968 148.598 14.4134C153.953 13.03 164.791 14.3442 165.305 30.6681L166.269 56.2605C166.055 57.6439 166.333 60.549 169.161 61.1023L169.258 61.1402C171.612 62.0534 174.223 63.0667 173.41 60.0648Z" fill="#FCFCF8"/>
<path d="M173.41 60.0648C168.591 46.4616 163.001 17.8027 179.193 11.9925C187.868 8.18821 206.759 7.21984 212.928 33.7807C214.32 40.2364 216.269 55.638 212.928 65.5983C211.643 67.7887 208.816 75.0878 212.928 82.2814C216.389 94.3859 221.851 109.257 214.213 144.879C210.135 163.901 195.956 230.994 204.18 315.38C204.18 348.581 190.365 390 143.852 390C127.467 389.654 95.3381 374.45 97.9084 328.522V287.367C96.7303 259.815 92.3823 212.029 84.4145 168.314C79.0753 144.731 82.1898 127.592 84.4145 121.971C87.1989 118.051 85.7551 107.03 83.6989 97.0701C81.1287 90.2685 78.1086 75.4895 86.5905 70.786C89.6962 69.0568 98.2939 66.5109 101.121 73.9811C98.955 68.5629 95.715 56.8965 100.084 53.5763C102.655 51.386 108.502 47.2128 111.329 48.0428C113.364 48.707 116.791 51.1554 118.398 56.2605L120.647 63.6058C121.182 65.2198 122.703 68.3093 124.502 67.756C125.274 67.7009 126.434 66.5698 124.896 62.4857L120.077 49.6895C117.935 45.5394 115.9 36.5474 124.896 33.7807C128.537 32.1667 139.217 30.3356 141.53 41.126C139.817 32.5951 138.06 15.7968 148.598 14.4134C153.953 13.03 164.791 14.3442 165.305 30.6681L166.269 56.2605C166.055 57.6439 166.333 60.549 169.161 61.1023C171.539 62.0246 174.234 63.1082 173.41 60.0648Z" stroke="#1E1E19" stroke-width="3" stroke-linecap="round" stroke-linejoin="round"/>
<path d="M127.715 265.925C136.39 264.657 157.594 256.241 173.016 232.724M163.377 261.775C158.13 265.925 147.056 277.061 144.743 288.405" stroke="#1E1E19" stroke-width="2" stroke-linecap="round"/>
<path d="M101.048 73.9812C102.441 77.4396 105.225 85.7399 107.474 89.89M141.53 41.126C143.029 47.2359 145.964 60.2857 145.707 63.6058" stroke="#1E1E19" stroke-width="3" stroke-linecap="round"/>
<path d="M82 133.042H216" stroke="#1E1E19" stroke-width="5" stroke-linecap="round" stroke-dasharray="4 8"/>
</svg>
