<svg width="300" height="400" viewBox="0 0 300 400" fill="none" xmlns="http://www.w3.org/2000/svg">
<path d="M182.916 11.508C166.724 17.2791 167.173 45.32 171.993 58.8318C172.817 61.8547 170.194 63.6086 167.816 62.6926C164.989 62.1429 164.71 57.4577 164.924 56.0836L163.265 33.4112C162.751 17.1971 151.913 15.8917 146.558 17.2658C136.02 18.6399 136.813 35.9304 138.526 44.4039C136.213 33.6861 128.352 34.2128 124.711 35.8159C115.715 38.5641 117.75 47.4956 119.892 51.6178L124.711 64.3281C128.619 77.1204 126.049 75.0592 125.085 76.0898C122.889 76.8588 121.23 70.5935 119.623 64.3281C116.463 53.761 107.558 55.2211 105.5 56.0836C93 61.3221 97.4652 74.3846 99.5 80.5679C96.6727 73.1479 89.6368 72.9981 86.531 74.7157C78.0491 79.3876 76.4297 91.454 79 98.2099C81.0562 108.103 81.337 114.564 77.8564 124.87C73.6796 137.236 77.8563 170.424 77.8563 170.424L92.9566 329.131C98.2229 378.941 127.281 389.299 143.667 389.642C197.248 393.503 206.194 365.969 210.547 314.703C219.347 211.042 219.874 160.462 221.791 138.82C224.683 106.186 222.863 92.9223 217.294 82.9602C213.181 75.815 214.723 69.6774 216.008 67.5018C219.35 57.6084 215.794 42.2283 214.402 35.8159C208.233 9.43351 191.591 7.72927 182.916 11.508Z" fill="#FCFCF8" stroke="#1E1E19" stroke-width="3" stroke-linecap="round"/>
<path d="M127.013 266.4C135.687 265.141 156.892 256.782 172.314 233.422M162.675 262.278C157.428 266.4 146.354 277.462 144.041 288.729" stroke="#1E1E19" stroke-width="2" stroke-linecap="round"/>
<path d="M138.205 43.0298C139.704 49.0986 142.639 62.0608 142.382 65.3586M99 78.964L104 93.9329" stroke="#1E1E19" stroke-width="3" stroke-linecap="round"/>
<path d="M77.5 132.425H221.5" stroke="#1E1E19" stroke-width="5" stroke-linecap="round" stroke-dasharray="4 8"/>
</svg>
