<svg width="300" height="400" viewBox="0 0 300 400" fill="none" xmlns="http://www.w3.org/2000/svg">
<path d="M191.616 11.1285C174.242 16.92 171.011 47.4729 176.182 61.0324C177.066 64.066 172.184 63.6753 169.632 62.756C166.598 62.2044 166.299 59.3087 166.529 57.9298L165.495 32.4196C164.943 16.1482 153.314 14.8382 147.569 16.2171C136.262 17.5961 137.112 34.9476 138.95 43.451C136.468 32.6953 128.034 33.2239 124.127 34.8327C114.474 37.5905 116.658 46.5536 118.956 50.6904L124.127 63.4455C126.057 71.9948 124.931 76.6602 124.127 77.9242C120.542 82.3368 119.875 70.1103 119.99 63.4455C119.714 52.9656 111.602 53.5632 107.58 55.1719C99.3063 57.3782 101.604 70.3401 103.788 76.5453C100.754 69.0991 93.3309 70.6849 89.9985 72.4085C80.8976 77.0969 84.138 91.8284 86.8959 98.6081C87.7264 102.198 88.889 110.342 86.8959 114.203C84.8536 118.8 81.9943 134.749 86.8958 161.776C95.4452 205.351 93.9055 278.329 95.1695 305.792V331.647C95.1695 366.203 119.99 391.743 144.466 389.907C184.722 386.887 193.074 340.348 193.074 311.653C184.248 227.538 197.247 161.464 209.887 138.942C219.884 115.237 217.402 91.0373 212.99 83.8669C208.577 76.6964 210.232 70.5372 211.611 68.3539C215.196 58.4256 216.552 37.9026 215.058 31.4676C215.058 12.8522 200.924 7.33641 191.616 11.1285Z" fill="#FCFCF8" stroke="#1E1E19" stroke-width="3" stroke-linecap="round"/>
<path d="M123.704 270.478C131.098 269.473 149.17 262.804 162.314 244.167M154.099 267.189C149.627 270.478 140.189 279.303 138.217 288.293" stroke="#1E1E19" stroke-width="2" stroke-linecap="round"/>
<path d="M103.788 76.2005C105.282 79.6478 107.925 87.7146 106.546 92.4029M138.606 42.072C140.215 48.1623 143.363 61.1702 143.088 64.4796" stroke="#1E1E19" stroke-width="3" stroke-linecap="round"/>
<path d="M85.7026 125.728H213.924" stroke="#1E1E19" stroke-width="5" stroke-linecap="round" stroke-dasharray="4 8"/>
</svg>
